<svg width="178" height="24" viewBox="0 0 178 24" fill="none" xmlns="http://www.w3.org/2000/svg">
  <defs>
    <linearGradient gradientUnits="userSpaceOnUse" x1="0" y1="0" x2="29" y2="29" id="g1">
      <stop offset="0%" stop-color="#5269FB" />
      <stop offset="100%" stop-color="#5269FB" />
    </linearGradient>
  </defs>
  <path d="M8.57031 16.0535L16.0468 0.458984L8.57031 16.0535Z" fill="url(#g1)" />
  <path d="M18.5818 20.8531V23.9999H13.4244V20.8531H8.83594L11.1364 16.0533H13.4244V12.7793H18.5818V16.0533V20.8531Z"
    fill="url(#g1)" />
  <path d="M8.57049 16.0534L16.047 0.458984H10.3146L0 20.8532H2.89434H6.27002L8.57049 16.0534Z" fill="url(#g1)" />
  <path d="M59.1921 5.55118H50.3464V8.90784H59.0483V14H50.3464V21.0694H45.1641V0.458984H59.1983V5.55118H59.1921Z"
    fill="url(#g1)" />
  <path
    d="M73.806 21.0698L72.937 18.0946H66.1919L65.323 21.0698H59.7031L66.392 0.453125H72.7057L79.3946 21.0698H73.806ZM67.5234 13.5619H71.6055L69.5489 6.55613L67.5234 13.5619Z"
    fill="url(#g1)" />
  <path
    d="M82.8881 18.4493C80.8877 16.3896 79.9062 13.8276 79.9062 10.7634C79.9062 7.69915 80.8877 5.13716 82.8881 3.10918C84.8885 1.04941 87.4328 0.0195312 90.4772 0.0195312C92.3025 0.0195312 94.0091 0.458185 95.5719 1.34185C97.1348 2.22551 98.3538 3.40161 99.2477 4.90829L94.7593 7.5275C93.9779 6.08439 92.3588 5.16894 90.4709 5.16894C88.8518 5.16894 87.5453 5.6966 86.5326 6.73284C85.5511 7.76272 85.0573 9.08504 85.0573 10.7697C85.0573 12.448 85.5511 13.8022 86.5326 14.832C87.5453 15.8619 88.8518 16.3641 90.4709 16.3641C92.3525 16.3641 93.9779 15.4805 94.7593 13.9802L99.2477 16.6312C97.4786 19.6636 94.1779 21.5199 90.4709 21.5199C87.4328 21.5136 84.8823 20.4837 82.8881 18.4493Z"
    fill="url(#g1)" />
  <path d="M116.65 0.458984V5.55118H111.643V21.0694H106.46V5.55118H101.453V0.458984H116.65Z" fill="url(#g1)" />
  <path
    d="M128.479 21.5136C125.497 21.5136 122.978 20.4837 120.921 18.4239C118.864 16.3324 117.852 13.8022 117.852 10.7697C117.852 7.73729 118.864 5.20709 120.921 3.14096C122.978 1.04941 125.497 0.0195312 128.479 0.0195312C131.461 0.0195312 133.949 1.04941 136.005 3.14096C138.062 5.20073 139.106 7.73729 139.106 10.7697C139.106 13.8022 138.062 16.3387 136.005 18.4239C133.949 20.4837 131.461 21.5136 128.479 21.5136ZM128.479 16.3578C130.042 16.3578 131.348 15.8301 132.386 14.7939C133.43 13.7322 133.949 12.3781 133.949 10.757C133.949 9.1359 133.43 7.78179 132.386 6.75191C131.342 5.69024 130.042 5.16259 128.479 5.16259C126.916 5.16259 125.609 5.69024 124.572 6.75191C123.528 7.78179 123.009 9.1359 123.009 10.757C123.009 12.3781 123.528 13.7322 124.572 14.7939C125.609 15.8301 126.916 16.3578 128.479 16.3578Z"
    fill="url(#g1)" />
  <path
    d="M152.557 21.0693L149.025 14.4133H147.174V21.0693H141.992V0.458984H150.1C152.157 0.458984 153.895 1.13922 155.282 2.49332C156.701 3.81564 157.395 5.52575 157.395 7.58552C157.395 10.0585 156.064 12.2391 153.951 13.4469L158.12 21.0757H152.557V21.0693ZM147.168 5.31596V9.93772H150.038C151.313 9.9695 152.207 9.02227 152.207 7.64273C152.207 6.25684 151.307 5.31596 150.038 5.31596H147.168Z"
    fill="url(#g1)" />
  <path
    d="M177.299 0.458984L170.467 13.1545V21.0757H165.284V13.2117L158.445 0.458984H164.265L167.853 8.08774L171.473 0.458984H177.299Z"
    fill="url(#g1)" />
  <path
    d="M40.24 4.39364C39.4585 3.3129 38.5521 2.44195 37.5269 1.76172L35.1827 6.43433C35.5265 6.72041 35.8453 7.03828 36.1204 7.41336C36.9956 8.59582 37.3081 10.0135 37.0643 11.6155C36.8205 13.2176 36.1016 14.4763 34.9139 15.36C33.7262 16.2182 32.3634 16.5361 30.8131 16.2945C30.6318 16.2627 30.4693 16.2055 30.2942 16.1674L27.9375 20.859C28.6001 21.0943 29.3003 21.2723 30.0379 21.3867C32.9885 21.8508 35.6015 21.2151 37.9457 19.4986C40.29 17.7503 41.7027 15.4108 42.1591 12.4102C42.6154 9.40955 41.959 6.7522 40.24 4.39364Z"
    fill="url(#g1)" />
  <path
    d="M27.1847 14.1463C26.3158 12.9384 26.0032 11.5207 26.247 9.91865C26.4908 8.31661 27.2097 7.05787 28.3912 6.20599C29.5789 5.32232 30.948 4.9981 32.492 5.23968C32.6733 5.27146 32.8359 5.32868 33.0109 5.36682L35.3676 0.675138C34.705 0.439918 34.0048 0.261913 33.2672 0.147482C30.3166 -0.316601 27.6723 0.312772 25.328 2.06103C22.9901 3.7775 21.6023 6.12334 21.1522 9.12399C20.6958 12.1246 21.321 14.782 23.0338 17.166C23.8152 18.2404 24.7342 19.1049 25.7719 19.7852L28.1161 15.1126C27.7786 14.8265 27.4597 14.515 27.1847 14.1463Z"
    fill="url(#g1)" />
</svg>