<svg xml:space="preserve" style="max-height: 500px" viewBox="100.02772277227722 201.2114 641.8445544554455 130.96599999999998" y="0px" x="0px" xmlns:xlink="http://www.w3.org/1999/xlink" xmlns="http://www.w3.org/2000/svg" id="Livello_1" version="1.1" width="641.8445544554455" height="130.96599999999998">
<style type="text/css">
	.st0{fill:#26358B;}
</style>
<g>
	<path d="M464.5,212.6h-21.3c-11.7,0-21.3,9.5-21.3,21.3c0,11.7,9.5,21.3,21.3,21.3h21.3c3.9,0,7.1,3.2,7.1,7.1&#10;&#9;&#9;s-3.2,7.1-7.1,7.1h-75.8v0.1c-0.7-0.1-1.4-0.1-2.1-0.1c-11.7,0-21.3,9.5-21.3,21.3c0,11.7,9.5,21.3,21.3,21.3c0.7,0,1.4,0,2.1-0.1&#10;&#9;&#9;v0.1h75.8c27.4,0,49.6-22.2,49.6-49.6S491.9,212.6,464.5,212.6z" class="st0"/>
	<path d="M304,233.9c0-11.7-9.5-21.3-21.3-21.3c0,0,0,0,0,0c-19.9,0-39.9,7.6-55.1,22.8l-0.1,0.1l-0.1-0.1L204,258.9&#10;&#9;&#9;c-6.9,6.9-16,10.4-25.1,10.4h-21.3c-3.9,0-7.1-3.2-7.1-7.1c0-3.9,3.2-7.1,7.1-7.1h21.3c11.7,0,21.3-9.5,21.3-21.3&#10;&#9;&#9;s-9.5-21.3-21.3-21.3c0,0,0,0,0,0h-21.3c-27.4,0-49.6,22.2-49.6,49.6s22.2,49.6,49.6,49.6h21.3c0,0,0,0,0,0&#10;&#9;&#9;c19.9,0,39.9-7.6,55.1-22.8l23.6-23.5c6.9-6.9,16-10.4,25.1-10.4C294.5,255.1,304,245.6,304,233.9z" class="st0"/>
	<path d="M407.8,233.9c0-11.7-9.5-21.3-21.3-21.3c0,0,0,0,0,0c-19.9,0-39.9,7.6-55.1,22.8l-0.1,0.1l-0.1-0.1l-23.5,23.5&#10;&#9;&#9;c-6.9,6.9-16,10.4-25.1,10.4c-11.7,0-21.3,9.5-21.3,21.3c0,11.7,9.5,21.3,21.3,21.3c0,0,0,0,0,0c19.9,0,39.9-7.6,55.1-22.8&#10;&#9;&#9;l23.6-23.5c6.9-6.9,16-10.4,25.1-10.4C398.3,255.1,407.8,245.6,407.8,233.9z" class="st0"/>
	<path d="M574.7,212.6c-27.4,0-49.6,22.2-49.6,49.6v28.3c0,11.7,9.5,21.3,21.3,21.3c11.7,0,21.3-9.5,21.3-21.3h14.2&#10;&#9;&#9;c0,11.7,9.5,21.3,21.3,21.3s21.3-9.5,21.3-21.3v-28.3C624.3,234.8,602.1,212.6,574.7,212.6z M581.7,269.3h-14.2v-7.1&#10;&#9;&#9;c0-3.9,3.2-7.1,7.1-7.1s7.1,3.2,7.1,7.1V269.3z" class="st0"/>
	<path d="M732,304.9c-0.4-0.4-0.8-0.7-1.4-0.9c-0.5-0.2-1.1-0.3-1.7-0.3c-0.6,0-1.2,0.1-1.7,0.3c-0.5,0.2-1,0.5-1.4,0.9&#10;&#9;&#9;c-0.4,0.4-0.7,0.9-0.9,1.4c-0.2,0.5-0.3,1.1-0.3,1.7v0c0,0.6,0.1,1.2,0.3,1.7c0.2,0.5,0.5,1,0.9,1.4c0.4,0.4,0.8,0.7,1.4,0.9&#10;&#9;&#9;c0.5,0.2,1.1,0.3,1.7,0.3c0.6,0,1.2-0.1,1.7-0.3c0.5-0.2,1-0.5,1.4-0.9c0.4-0.4,0.7-0.9,0.9-1.4c0.2-0.5,0.3-1.1,0.3-1.7v0&#10;&#9;&#9;c0-0.6-0.1-1.2-0.3-1.7C732.7,305.7,732.4,305.3,732,304.9z M732.7,307.9c0,0.5-0.1,1-0.3,1.5c-0.2,0.5-0.5,0.9-0.8,1.2&#10;&#9;&#9;s-0.8,0.6-1.2,0.8s-1,0.3-1.5,0.3c-0.5,0-1-0.1-1.5-0.3s-0.9-0.5-1.2-0.8c-0.3-0.3-0.6-0.8-0.8-1.2c-0.2-0.5-0.3-1-0.3-1.5v0&#10;&#9;&#9;c0-0.5,0.1-1,0.3-1.5c0.2-0.5,0.5-0.9,0.8-1.2s0.8-0.6,1.2-0.8s1-0.3,1.5-0.3c0.5,0,1,0.1,1.5,0.3s0.9,0.5,1.2,0.8&#10;&#9;&#9;c0.3,0.3,0.6,0.8,0.8,1.2C732.6,306.9,732.7,307.4,732.7,307.9L732.7,307.9z" class="st0"/>
	<path d="M730.7,308c0.2-0.2,0.3-0.5,0.3-0.9v0c0-0.4-0.1-0.8-0.4-1c-0.3-0.3-0.8-0.5-1.4-0.5h-2.1v4.6h1v-1.5h0.8h0&#10;&#9;&#9;l1,1.5h1.2l-1.1-1.7C730.3,308.4,730.5,308.2,730.7,308z M729.9,307.1c0,0.2-0.1,0.4-0.2,0.5c-0.1,0.1-0.3,0.2-0.6,0.2h-1v-1.4h1&#10;&#9;&#9;c0.3,0,0.5,0.1,0.6,0.2C729.8,306.7,729.9,306.9,729.9,307.1L729.9,307.1z" class="st0"/>
	<path d="M712.6,212.6c-11.7,0-21.3,9.5-21.3,21.3v21.3c0,3.9-3.2,7.1-7.1,7.1s-7.1-3.2-7.1-7.1h0v-21.3&#10;&#9;&#9;c0-11.7-9.5-21.3-21.3-21.3s-21.3,9.5-21.3,21.3v21.3h0c0,19.8,11.6,36.9,28.3,44.8v4.8c0,11.7,9.5,21.3,21.3,21.3&#10;&#9;&#9;s21.3-9.5,21.3-21.3v-4.8c16.8-8,28.3-25,28.3-44.8v-21.3C733.8,222.1,724.3,212.6,712.6,212.6z" class="st0"/>
</g>
</svg>